#N canvas 163 109 1110 703 10;
#X obj 115 449 dac~;
#X obj 668 75 loadbang;
#X msg 668 138 \; pd dsp 1;
#X obj 667 107 del 2000;
#X obj 110 326 readsf~ 2;
#X obj 104 400 *~ 0.5;
#X obj 164 399 *~ 0.5;
#X obj 120 94 loadbang;
#X msg 120 150 open drum-machine.wav \, 1;
#X msg 181 323 1;
#X connect 1 0 3 0;
#X connect 3 0 2 0;
#X connect 4 0 5 0;
#X connect 4 1 6 0;
#X connect 4 2 9 0;
#X connect 5 0 0 0;
#X connect 6 0 0 1;
#X connect 7 0 8 0;
#X connect 8 0 4 0;
#X connect 9 0 4 0;
