#N canvas 598 244 1110 703 10;
#X obj 309 436 dac~;
#X obj 864 395 loadbang;
#X msg 864 458 \; pd dsp 1;
#X obj 863 427 del 2000;
#X obj 92 145 *~ 0.1;
#X obj 106 240 vcf~ 4;
#X obj 185 143 mtof~;
#X obj 193 58 osc~ 0.05;
#X obj 193 110 expr~ ($v1 * 0.5 + 0.5) * 48 + 48;
#X obj 466 139 *~ 0.1;
#X obj 480 234 vcf~ 4;
#X obj 559 137 mtof~;
#X obj 567 104 expr~ ($v1 * 0.5 + 0.5) * 48 + 48;
#X obj 76 74 phasor~ 100;
#X obj 449 68 phasor~ 75;
#X obj 567 52 osc~ 0.081;
#X connect 1 0 3 0;
#X connect 3 0 2 0;
#X connect 4 0 5 0;
#X connect 5 0 0 0;
#X connect 6 0 5 1;
#X connect 7 0 8 0;
#X connect 8 0 6 0;
#X connect 9 0 10 0;
#X connect 10 0 0 1;
#X connect 11 0 10 1;
#X connect 12 0 11 0;
#X connect 13 0 4 0;
#X connect 14 0 9 0;
#X connect 15 0 12 0;
