#N canvas 598 244 1110 703 10;
#X obj 124 391 dac~;
#X obj 64 67 noise~;
#X obj 111 220 *~;
#X obj 78 127 *~ 0.01;
#X obj 164 173 cos~;
#X obj 214 173 cos~;
#X obj 145 220 *~;
#X obj 166 73 osc~ 0.1;
#X obj 226 141 +~ 0.25;
#X obj 285 203 loadbang;
#X msg 285 266 \; pd dsp 1;
#X obj 284 235 del 2000;
#X connect 1 0 3 0;
#X connect 2 0 0 0;
#X connect 3 0 2 0;
#X connect 3 0 6 0;
#X connect 4 0 2 1;
#X connect 5 0 6 1;
#X connect 6 0 0 1;
#X connect 7 0 4 0;
#X connect 7 0 8 0;
#X connect 8 0 5 0;
#X connect 9 0 11 0;
#X connect 11 0 10 0;
